<mxfile host="app.diagrams.net" agent="Mozilla/5.0 (Windows NT 10.0; Win64; x64) AppleWebKit/537.36 (KHTML, like Gecko) Chrome/132.0.0.0 Safari/537.36" version="26.0.11">
  <diagram name="Page-1" id="hUyLYyHjYQYTY6yxm78R">
    <mxGraphModel dx="1509" dy="777" grid="1" gridSize="10" guides="1" tooltips="1" connect="1" arrows="1" fold="1" page="1" pageScale="1" pageWidth="1200" pageHeight="1600" math="0" shadow="0">
      <root>
        <mxCell id="0" />
        <mxCell id="1" parent="0" />
        <mxCell id="GMMVsp1axSttJa6mAhZl-2" value="&lt;b&gt;SUM 3&lt;/b&gt;" style="rounded=0;whiteSpace=wrap;html=1;fillColor=#d5e8d4;strokeColor=#82b366;" vertex="1" parent="1">
          <mxGeometry x="320" y="639" width="120" height="60" as="geometry" />
        </mxCell>
        <mxCell id="GMMVsp1axSttJa6mAhZl-3" value="&lt;b&gt;SUM 4&lt;/b&gt;" style="rounded=0;whiteSpace=wrap;html=1;fillColor=#d5e8d4;strokeColor=#82b366;" vertex="1" parent="1">
          <mxGeometry x="320" y="719" width="120" height="60" as="geometry" />
        </mxCell>
        <mxCell id="GMMVsp1axSttJa6mAhZl-4" value="&lt;b&gt;SUM 5&lt;/b&gt;" style="rounded=0;whiteSpace=wrap;html=1;fillColor=#d5e8d4;strokeColor=#82b366;" vertex="1" parent="1">
          <mxGeometry x="320" y="799" width="120" height="60" as="geometry" />
        </mxCell>
        <mxCell id="GMMVsp1axSttJa6mAhZl-5" value="&lt;b&gt;SUM 6&lt;/b&gt;" style="rounded=0;whiteSpace=wrap;html=1;fillColor=#d5e8d4;strokeColor=#82b366;" vertex="1" parent="1">
          <mxGeometry x="320" y="879" width="120" height="60" as="geometry" />
        </mxCell>
        <mxCell id="GMMVsp1axSttJa6mAhZl-6" value="&lt;b&gt;SUM 2&lt;/b&gt;" style="rounded=0;whiteSpace=wrap;html=1;fillColor=#d5e8d4;strokeColor=#82b366;" vertex="1" parent="1">
          <mxGeometry x="320" y="559" width="120" height="60" as="geometry" />
        </mxCell>
        <mxCell id="GMMVsp1axSttJa6mAhZl-7" value="&lt;b&gt;SUM 7&lt;/b&gt;" style="rounded=0;whiteSpace=wrap;html=1;fillColor=#d5e8d4;strokeColor=#82b366;" vertex="1" parent="1">
          <mxGeometry x="320" y="959" width="120" height="60" as="geometry" />
        </mxCell>
        <mxCell id="GMMVsp1axSttJa6mAhZl-8" value="&lt;b&gt;SUM 8&lt;/b&gt;" style="rounded=0;whiteSpace=wrap;html=1;fillColor=#d5e8d4;strokeColor=#82b366;" vertex="1" parent="1">
          <mxGeometry x="320" y="1039" width="120" height="60" as="geometry" />
        </mxCell>
        <mxCell id="GMMVsp1axSttJa6mAhZl-9" value="&lt;b&gt;SUM 9&lt;/b&gt;" style="rounded=0;whiteSpace=wrap;html=1;fillColor=#d5e8d4;strokeColor=#82b366;" vertex="1" parent="1">
          <mxGeometry x="320" y="1119" width="120" height="60" as="geometry" />
        </mxCell>
        <mxCell id="GMMVsp1axSttJa6mAhZl-10" value="&lt;b&gt;SUM 10&lt;/b&gt;" style="rounded=0;whiteSpace=wrap;html=1;fillColor=#d5e8d4;strokeColor=#82b366;" vertex="1" parent="1">
          <mxGeometry x="320" y="1199" width="120" height="60" as="geometry" />
        </mxCell>
        <mxCell id="GMMVsp1axSttJa6mAhZl-11" value="&lt;b&gt;SUM 11&lt;/b&gt;" style="rounded=0;whiteSpace=wrap;html=1;fillColor=#d5e8d4;strokeColor=#82b366;" vertex="1" parent="1">
          <mxGeometry x="320" y="1279" width="120" height="60" as="geometry" />
        </mxCell>
        <mxCell id="GMMVsp1axSttJa6mAhZl-12" value="&lt;b&gt;SUM 12&lt;/b&gt;" style="rounded=0;whiteSpace=wrap;html=1;fillColor=#d5e8d4;strokeColor=#82b366;" vertex="1" parent="1">
          <mxGeometry x="320" y="1359" width="120" height="60" as="geometry" />
        </mxCell>
        <mxCell id="GMMVsp1axSttJa6mAhZl-13" value="" style="endArrow=none;html=1;rounded=0;strokeWidth=4;" edge="1" parent="1">
          <mxGeometry width="50" height="50" relative="1" as="geometry">
            <mxPoint x="560" y="469" as="sourcePoint" />
            <mxPoint x="560" y="1411.13330078125" as="targetPoint" />
          </mxGeometry>
        </mxCell>
        <mxCell id="GMMVsp1axSttJa6mAhZl-15" value="&lt;b&gt;DONE&lt;/b&gt;" style="text;strokeColor=none;align=center;fillColor=none;html=1;verticalAlign=middle;whiteSpace=wrap;rounded=0;" vertex="1" parent="1">
          <mxGeometry x="650" y="430" width="90" height="30" as="geometry" />
        </mxCell>
        <mxCell id="GMMVsp1axSttJa6mAhZl-16" value="&lt;b&gt;TO DO&lt;/b&gt;" style="text;strokeColor=none;align=center;fillColor=none;html=1;verticalAlign=middle;whiteSpace=wrap;rounded=0;" vertex="1" parent="1">
          <mxGeometry x="340" y="430" width="90" height="30" as="geometry" />
        </mxCell>
        <mxCell id="GMMVsp1axSttJa6mAhZl-23" value="&lt;b&gt;SUM 1&lt;/b&gt;" style="rounded=0;whiteSpace=wrap;html=1;fillColor=#d5e8d4;strokeColor=#82b366;" vertex="1" parent="1">
          <mxGeometry x="320" y="480" width="120" height="60" as="geometry" />
        </mxCell>
        <mxCell id="GMMVsp1axSttJa6mAhZl-29" value="&lt;b&gt;&lt;u&gt;BOTTLE NECK&lt;/u&gt;&lt;/b&gt;&lt;div&gt;&lt;b&gt;1. Emotional Loss&lt;/b&gt;&lt;/div&gt;&lt;div&gt;&lt;b&gt;2. Spending More Time&lt;/b&gt;&lt;/div&gt;&lt;div&gt;&lt;b&gt;3. No Idea Problems&lt;/b&gt;&lt;/div&gt;" style="text;strokeColor=none;align=left;fillColor=none;html=1;verticalAlign=middle;whiteSpace=wrap;rounded=0;fontSize=18;" vertex="1" parent="1">
          <mxGeometry x="920" y="450" width="240" height="90" as="geometry" />
        </mxCell>
      </root>
    </mxGraphModel>
  </diagram>
</mxfile>
